<svg width="1em" height="1em" viewBox="0 0 60 60" xmlns="http://www.w3.org/2000/svg">
<mask id="a" fill="currentColor">
<path d="m12.088 14.642v3.8806h-7.9607v-13.582c0-1.0716 0.89103-1.9403 1.9902-1.9403h47.764c1.0992 0 1.9902 0.86871 1.9902 1.9403v13.582h-7.9607v-3.8806c0-2.1432-1.7821-3.8807-3.9804-3.8807h-27.862c-2.1983 0-3.9804 1.7375-3.9804 3.8807z"/>
<path d="m10.83 24.494h2.7232v7.0996c0 0.8205-0.2003 1.5353-0.6009 2.1444-0.4006 0.6055-0.9592 1.0749-1.6758 1.4081-0.7167 0.3297-1.549 0.4945-2.4972 0.4945-0.95918 0-1.7971-0.1648-2.5137-0.4945-0.71663-0.3332-1.2734-0.8026-1.6703-1.4081-0.39691-0.6091-0.59536-1.3239-0.59536-2.1444v-7.0996h2.7287v6.8685c0 0.3798 0.08452 0.7184 0.25358 1.0158 0.17272 0.2974 0.41344 0.5303 0.72214 0.6987 0.30871 0.1684 0.66702 0.2526 1.075 0.2526s0.76441-0.0842 1.0694-0.2526c0.30867-0.1684 0.54937-0.4013 0.72217-0.6987 0.1727-0.2974 0.2591-0.636 0.2591-1.0158v-6.8685z"/>
<path d="m19.216 35.657c-0.8894 0-1.6538-0.1774-2.2933-0.5321-0.6358-0.3583-1.1264-0.8563-1.4718-1.4941-0.3418-0.6413-0.5127-1.3848-0.5127-2.2304 0-0.8491 0.1709-1.5926 0.5127-2.2304 0.3454-0.6413 0.836-1.1393 1.4718-1.494 0.6395-0.3583 1.4039-0.5375 2.2933-0.5375 0.8893 0 1.6519 0.1792 2.2877 0.5375 0.6394 0.3547 1.13 0.8527 1.4718 1.494 0.3455 0.6378 0.5182 1.3813 0.5182 2.2304 0 0.8456-0.1727 1.5891-0.5182 2.2304-0.3418 0.6378-0.8324 1.1358-1.4718 1.4941-0.6358 0.3547-1.3984 0.5321-2.2877 0.5321zm0.0165-1.9832c0.3234 0 0.5972-0.0967 0.8214-0.2902 0.2241-0.1935 0.395-0.4622 0.5126-0.8062 0.1213-0.3439 0.1819-0.7416 0.1819-1.1931 0-0.4586-0.0606-0.8599-0.1819-1.2039-0.1176-0.3439-0.2885-0.6126-0.5126-0.8061-0.2242-0.1935-0.498-0.2902-0.8214-0.2902-0.3344 0-0.6174 0.0967-0.8489 0.2902-0.2279 0.1935-0.4025 0.4622-0.5237 0.8061-0.1176 0.344-0.1764 0.7453-0.1764 1.2039 0 0.4515 0.0588 0.8492 0.1764 1.1931 0.1212 0.344 0.2958 0.6127 0.5237 0.8062 0.2315 0.1935 0.5145 0.2902 0.8489 0.2902z"/>
<path d="m34.483 24.494v11.007h-2.3153l-4.4927-6.3525h-0.0717v6.3525h-2.7287v-11.007h2.3483l4.4432 6.3418h0.0937v-6.3418h2.7232z"/>
<path d="m42.301 27.794c-0.0368-0.3941-0.2003-0.7005-0.4906-0.919-0.2867-0.2222-0.6965-0.3332-1.2293-0.3332-0.3528 0-0.6468 0.0447-0.882 0.1343-0.2353 0.0896-0.4117 0.2132-0.5293 0.3708-0.1176 0.1541-0.1782 0.3315-0.1819 0.5321-0.0073 0.1648 0.0258 0.3099 0.0993 0.4353 0.0771 0.1254 0.1874 0.2365 0.3307 0.3333 0.147 0.0931 0.3234 0.1755 0.5292 0.2472 0.2058 0.0716 0.4373 0.1343 0.6946 0.1881l0.9702 0.215c0.5586 0.1182 1.0511 0.2759 1.4774 0.4729 0.43 0.1971 0.7901 0.4318 1.0804 0.7041 0.294 0.2723 0.5164 0.5858 0.6671 0.9405 0.1506 0.3547 0.2278 0.7524 0.2315 1.1931-0.0037 0.6951-0.1838 1.2917-0.5402 1.7897-0.3565 0.498-0.8692 0.8796-1.538 1.1448-0.6652 0.2651-1.4682 0.3977-2.409 0.3977-0.9445 0-1.7677-0.138-2.4697-0.4139-0.7019-0.2758-1.2476-0.6951-1.6372-1.2576s-0.5898-1.2737-0.6009-2.1336h2.613c0.022 0.3547 0.1194 0.6503 0.2922 0.8868 0.1727 0.2364 0.4097 0.4156 0.7111 0.5374 0.305 0.1218 0.6578 0.1827 1.0584 0.1827 0.3675 0 0.6799-0.0483 0.9371-0.1451 0.2609-0.0967 0.4612-0.2311 0.6009-0.4031 0.1396-0.1719 0.2113-0.369 0.215-0.5912-0.0037-0.2078-0.0698-0.3851-0.1985-0.532-0.1286-0.1505-0.327-0.2795-0.5953-0.387-0.2646-0.1111-0.6027-0.2132-1.0143-0.3063l-1.1797-0.2687c-0.9776-0.2186-1.7475-0.5715-2.3098-1.0588-0.5623-0.4909-0.8416-1.1537-0.8379-1.9886-0.0037-0.6807 0.1838-1.2773 0.5623-1.7896 0.3785-0.5124 0.9022-0.9119 1.5711-1.1985 0.6688-0.2867 1.4314-0.43 2.2877-0.43 0.8746 0 1.6335 0.1451 2.2767 0.4353 0.6468 0.2867 1.1484 0.6898 1.5049 1.2093s0.5384 1.1214 0.5457 1.8058h-2.6129z"/>
<path d="m53.277 24.494h2.7232v7.0996c0 0.8205-0.2003 1.5353-0.6009 2.1444-0.4006 0.6055-0.9592 1.0749-1.6758 1.4081-0.7166 0.3297-1.549 0.4945-2.4972 0.4945-0.9592 0-1.7971-0.1648-2.5137-0.4945-0.7166-0.3332-1.2734-0.8026-1.6703-1.4081-0.3969-0.6091-0.5954-1.3239-0.5954-2.1444v-7.0996h2.7287v6.8685c0 0.3798 0.0846 0.7184 0.2536 1.0158 0.1728 0.2974 0.4135 0.5303 0.7222 0.6987s0.667 0.2526 1.0749 0.2526 0.7644-0.0842 1.0695-0.2526c0.3087-0.1684 0.5494-0.4013 0.7221-0.6987s0.2591-0.636 0.2591-1.0158v-6.8685z"/>
<path d="m47.912 45.358v-3.8806h7.9607v13.582c0 1.0716-0.891 1.9403-1.9902 1.9403h-47.764c-1.0991 0-1.9902-0.8687-1.9902-1.9403v-13.582h7.9607v3.8806c0 2.1433 1.7821 3.8807 3.9804 3.8807h27.862c2.1983 0 3.9804-1.7375 3.9804-3.8807z"/>
</mask>
<path d="m12.088 14.642v3.8806h-7.9607v-13.582c0-1.0716 0.89103-1.9403 1.9902-1.9403h47.764c1.0992 0 1.9902 0.86871 1.9902 1.9403v13.582h-7.9607v-3.8806c0-2.1432-1.7821-3.8807-3.9804-3.8807h-27.862c-2.1983 0-3.9804 1.7375-3.9804 3.8807z" fill="currentColor"/>
<path d="m10.83 24.494h2.7232v7.0996c0 0.8205-0.2003 1.5353-0.6009 2.1444-0.4006 0.6055-0.9592 1.0749-1.6758 1.4081-0.7167 0.3297-1.549 0.4945-2.4972 0.4945-0.95918 0-1.7971-0.1648-2.5137-0.4945-0.71663-0.3332-1.2734-0.8026-1.6703-1.4081-0.39691-0.6091-0.59536-1.3239-0.59536-2.1444v-7.0996h2.7287v6.8685c0 0.3798 0.08452 0.7184 0.25358 1.0158 0.17272 0.2974 0.41344 0.5303 0.72214 0.6987 0.30871 0.1684 0.66702 0.2526 1.075 0.2526s0.76441-0.0842 1.0694-0.2526c0.30867-0.1684 0.54937-0.4013 0.72217-0.6987 0.1727-0.2974 0.2591-0.636 0.2591-1.0158v-6.8685z" fill="currentColor"/>
<path d="m19.216 35.657c-0.8894 0-1.6538-0.1774-2.2933-0.5321-0.6358-0.3583-1.1264-0.8563-1.4718-1.4941-0.3418-0.6413-0.5127-1.3848-0.5127-2.2304 0-0.8491 0.1709-1.5926 0.5127-2.2304 0.3454-0.6413 0.836-1.1393 1.4718-1.494 0.6395-0.3583 1.4039-0.5375 2.2933-0.5375 0.8893 0 1.6519 0.1792 2.2877 0.5375 0.6394 0.3547 1.13 0.8527 1.4718 1.494 0.3455 0.6378 0.5182 1.3813 0.5182 2.2304 0 0.8456-0.1727 1.5891-0.5182 2.2304-0.3418 0.6378-0.8324 1.1358-1.4718 1.4941-0.6358 0.3547-1.3984 0.5321-2.2877 0.5321zm0.0165-1.9832c0.3234 0 0.5972-0.0967 0.8214-0.2902 0.2241-0.1935 0.395-0.4622 0.5126-0.8062 0.1213-0.3439 0.1819-0.7416 0.1819-1.1931 0-0.4586-0.0606-0.8599-0.1819-1.2039-0.1176-0.3439-0.2885-0.6126-0.5126-0.8061-0.2242-0.1935-0.498-0.2902-0.8214-0.2902-0.3344 0-0.6174 0.0967-0.8489 0.2902-0.2279 0.1935-0.4025 0.4622-0.5237 0.8061-0.1176 0.344-0.1764 0.7453-0.1764 1.2039 0 0.4515 0.0588 0.8492 0.1764 1.1931 0.1212 0.344 0.2958 0.6127 0.5237 0.8062 0.2315 0.1935 0.5145 0.2902 0.8489 0.2902z" fill="currentColor"/>
<path d="m34.483 24.494v11.007h-2.3153l-4.4927-6.3525h-0.0717v6.3525h-2.7287v-11.007h2.3483l4.4432 6.3418h0.0937v-6.3418h2.7232z" fill="currentColor"/>
<path d="m42.301 27.794c-0.0368-0.3941-0.2003-0.7005-0.4906-0.919-0.2867-0.2222-0.6965-0.3332-1.2293-0.3332-0.3528 0-0.6468 0.0447-0.882 0.1343-0.2353 0.0896-0.4117 0.2132-0.5293 0.3708-0.1176 0.1541-0.1782 0.3315-0.1819 0.5321-0.0073 0.1648 0.0258 0.3099 0.0993 0.4353 0.0771 0.1254 0.1874 0.2365 0.3307 0.3333 0.147 0.0931 0.3234 0.1755 0.5292 0.2472 0.2058 0.0716 0.4373 0.1343 0.6946 0.1881l0.9702 0.215c0.5586 0.1182 1.0511 0.2759 1.4774 0.4729 0.43 0.1971 0.7901 0.4318 1.0804 0.7041 0.294 0.2723 0.5164 0.5858 0.6671 0.9405 0.1506 0.3547 0.2278 0.7524 0.2315 1.1931-0.0037 0.6951-0.1838 1.2917-0.5402 1.7897-0.3565 0.498-0.8692 0.8796-1.538 1.1448-0.6652 0.2651-1.4682 0.3977-2.409 0.3977-0.9445 0-1.7677-0.138-2.4697-0.4139-0.7019-0.2758-1.2476-0.6951-1.6372-1.2576s-0.5898-1.2737-0.6009-2.1336h2.613c0.022 0.3547 0.1194 0.6503 0.2922 0.8868 0.1727 0.2364 0.4097 0.4156 0.7111 0.5374 0.305 0.1218 0.6578 0.1827 1.0584 0.1827 0.3675 0 0.6799-0.0483 0.9371-0.1451 0.2609-0.0967 0.4612-0.2311 0.6009-0.4031 0.1396-0.1719 0.2113-0.369 0.215-0.5912-0.0037-0.2078-0.0698-0.3851-0.1985-0.532-0.1286-0.1505-0.327-0.2795-0.5953-0.387-0.2646-0.1111-0.6027-0.2132-1.0143-0.3063l-1.1797-0.2687c-0.9776-0.2186-1.7475-0.5715-2.3098-1.0588-0.5623-0.4909-0.8416-1.1537-0.8379-1.9886-0.0037-0.6807 0.1838-1.2773 0.5623-1.7896 0.3785-0.5124 0.9022-0.9119 1.5711-1.1985 0.6688-0.2867 1.4314-0.43 2.2877-0.43 0.8746 0 1.6335 0.1451 2.2767 0.4353 0.6468 0.2867 1.1484 0.6898 1.5049 1.2093s0.5384 1.1214 0.5457 1.8058h-2.6129z" fill="currentColor"/>
<path d="m53.277 24.494h2.7232v7.0996c0 0.8205-0.2003 1.5353-0.6009 2.1444-0.4006 0.6055-0.9592 1.0749-1.6758 1.4081-0.7166 0.3297-1.549 0.4945-2.4972 0.4945-0.9592 0-1.7971-0.1648-2.5137-0.4945-0.7166-0.3332-1.2734-0.8026-1.6703-1.4081-0.3969-0.6091-0.5954-1.3239-0.5954-2.1444v-7.0996h2.7287v6.8685c0 0.3798 0.0846 0.7184 0.2536 1.0158 0.1728 0.2974 0.4135 0.5303 0.7222 0.6987s0.667 0.2526 1.0749 0.2526 0.7644-0.0842 1.0695-0.2526c0.3087-0.1684 0.5494-0.4013 0.7221-0.6987s0.2591-0.636 0.2591-1.0158v-6.8685z" fill="currentColor"/>
<path d="m47.912 45.358v-3.8806h7.9607v13.582c0 1.0716-0.891 1.9403-1.9902 1.9403h-47.764c-1.0991 0-1.9902-0.8687-1.9902-1.9403v-13.582h7.9607v3.8806c0 2.1433 1.7821 3.8807 3.9804 3.8807h27.862c2.1983 0 3.9804-1.7375 3.9804-3.8807z" fill="currentColor"/>
<path d="m12.088 14.642v3.8806h-7.9607v-13.582c0-1.0716 0.89103-1.9403 1.9902-1.9403h47.764c1.0992 0 1.9902 0.86871 1.9902 1.9403v13.582h-7.9607v-3.8806c0-2.1432-1.7821-3.8807-3.9804-3.8807h-27.862c-2.1983 0-3.9804 1.7375-3.9804 3.8807z" mask="url(#a)" stroke="currentColor" stroke-width="2"/>
<path d="m10.83 24.494h2.7232v7.0996c0 0.8205-0.2003 1.5353-0.6009 2.1444-0.4006 0.6055-0.9592 1.0749-1.6758 1.4081-0.7167 0.3297-1.549 0.4945-2.4972 0.4945-0.95918 0-1.7971-0.1648-2.5137-0.4945-0.71663-0.3332-1.2734-0.8026-1.6703-1.4081-0.39691-0.6091-0.59536-1.3239-0.59536-2.1444v-7.0996h2.7287v6.8685c0 0.3798 0.08452 0.7184 0.25358 1.0158 0.17272 0.2974 0.41344 0.5303 0.72214 0.6987 0.30871 0.1684 0.66702 0.2526 1.075 0.2526s0.76441-0.0842 1.0694-0.2526c0.30867-0.1684 0.54937-0.4013 0.72217-0.6987 0.1727-0.2974 0.2591-0.636 0.2591-1.0158v-6.8685z" mask="url(#a)" stroke="currentColor" stroke-width="2"/>
<path d="m19.216 35.657c-0.8894 0-1.6538-0.1774-2.2933-0.5321-0.6358-0.3583-1.1264-0.8563-1.4718-1.4941-0.3418-0.6413-0.5127-1.3848-0.5127-2.2304 0-0.8491 0.1709-1.5926 0.5127-2.2304 0.3454-0.6413 0.836-1.1393 1.4718-1.494 0.6395-0.3583 1.4039-0.5375 2.2933-0.5375 0.8893 0 1.6519 0.1792 2.2877 0.5375 0.6394 0.3547 1.13 0.8527 1.4718 1.494 0.3455 0.6378 0.5182 1.3813 0.5182 2.2304 0 0.8456-0.1727 1.5891-0.5182 2.2304-0.3418 0.6378-0.8324 1.1358-1.4718 1.4941-0.6358 0.3547-1.3984 0.5321-2.2877 0.5321zm0.0165-1.9832c0.3234 0 0.5972-0.0967 0.8214-0.2902 0.2241-0.1935 0.395-0.4622 0.5126-0.8062 0.1213-0.3439 0.1819-0.7416 0.1819-1.1931 0-0.4586-0.0606-0.8599-0.1819-1.2039-0.1176-0.3439-0.2885-0.6126-0.5126-0.8061-0.2242-0.1935-0.498-0.2902-0.8214-0.2902-0.3344 0-0.6174 0.0967-0.8489 0.2902-0.2279 0.1935-0.4025 0.4622-0.5237 0.8061-0.1176 0.344-0.1764 0.7453-0.1764 1.2039 0 0.4515 0.0588 0.8492 0.1764 1.1931 0.1212 0.344 0.2958 0.6127 0.5237 0.8062 0.2315 0.1935 0.5145 0.2902 0.8489 0.2902z" mask="url(#a)" stroke="currentColor" stroke-width="2"/>
<path d="m34.483 24.494v11.007h-2.3153l-4.4927-6.3525h-0.0717v6.3525h-2.7287v-11.007h2.3483l4.4432 6.3418h0.0937v-6.3418h2.7232z" mask="url(#a)" stroke="currentColor" stroke-width="2"/>
<path d="m42.301 27.794c-0.0368-0.3941-0.2003-0.7005-0.4906-0.919-0.2867-0.2222-0.6965-0.3332-1.2293-0.3332-0.3528 0-0.6468 0.0447-0.882 0.1343-0.2353 0.0896-0.4117 0.2132-0.5293 0.3708-0.1176 0.1541-0.1782 0.3315-0.1819 0.5321-0.0073 0.1648 0.0258 0.3099 0.0993 0.4353 0.0771 0.1254 0.1874 0.2365 0.3307 0.3333 0.147 0.0931 0.3234 0.1755 0.5292 0.2472 0.2058 0.0716 0.4373 0.1343 0.6946 0.1881l0.9702 0.215c0.5586 0.1182 1.0511 0.2759 1.4774 0.4729 0.43 0.1971 0.7901 0.4318 1.0804 0.7041 0.294 0.2723 0.5164 0.5858 0.6671 0.9405 0.1506 0.3547 0.2278 0.7524 0.2315 1.1931-0.0037 0.6951-0.1838 1.2917-0.5402 1.7897-0.3565 0.498-0.8692 0.8796-1.538 1.1448-0.6652 0.2651-1.4682 0.3977-2.409 0.3977-0.9445 0-1.7677-0.138-2.4697-0.4139-0.7019-0.2758-1.2476-0.6951-1.6372-1.2576s-0.5898-1.2737-0.6009-2.1336h2.613c0.022 0.3547 0.1194 0.6503 0.2922 0.8868 0.1727 0.2364 0.4097 0.4156 0.7111 0.5374 0.305 0.1218 0.6578 0.1827 1.0584 0.1827 0.3675 0 0.6799-0.0483 0.9371-0.1451 0.2609-0.0967 0.4612-0.2311 0.6009-0.4031 0.1396-0.1719 0.2113-0.369 0.215-0.5912-0.0037-0.2078-0.0698-0.3851-0.1985-0.532-0.1286-0.1505-0.327-0.2795-0.5953-0.387-0.2646-0.1111-0.6027-0.2132-1.0143-0.3063l-1.1797-0.2687c-0.9776-0.2186-1.7475-0.5715-2.3098-1.0588-0.5623-0.4909-0.8416-1.1537-0.8379-1.9886-0.0037-0.6807 0.1838-1.2773 0.5623-1.7896 0.3785-0.5124 0.9022-0.9119 1.5711-1.1985 0.6688-0.2867 1.4314-0.43 2.2877-0.43 0.8746 0 1.6335 0.1451 2.2767 0.4353 0.6468 0.2867 1.1484 0.6898 1.5049 1.2093s0.5384 1.1214 0.5457 1.8058h-2.6129z" mask="url(#a)" stroke="currentColor" stroke-width="2"/>
<path d="m53.277 24.494h2.7232v7.0996c0 0.8205-0.2003 1.5353-0.6009 2.1444-0.4006 0.6055-0.9592 1.0749-1.6758 1.4081-0.7166 0.3297-1.549 0.4945-2.4972 0.4945-0.9592 0-1.7971-0.1648-2.5137-0.4945-0.7166-0.3332-1.2734-0.8026-1.6703-1.4081-0.3969-0.6091-0.5954-1.3239-0.5954-2.1444v-7.0996h2.7287v6.8685c0 0.3798 0.0846 0.7184 0.2536 1.0158 0.1728 0.2974 0.4135 0.5303 0.7222 0.6987s0.667 0.2526 1.0749 0.2526 0.7644-0.0842 1.0695-0.2526c0.3087-0.1684 0.5494-0.4013 0.7221-0.6987s0.2591-0.636 0.2591-1.0158v-6.8685z" mask="url(#a)" stroke="currentColor" stroke-width="2"/>
<path d="m47.912 45.358v-3.8806h7.9607v13.582c0 1.0716-0.891 1.9403-1.9902 1.9403h-47.764c-1.0991 0-1.9902-0.8687-1.9902-1.9403v-13.582h7.9607v3.8806c0 2.1433 1.7821 3.8807 3.9804 3.8807h27.862c2.1983 0 3.9804-1.7375 3.9804-3.8807z" mask="url(#a)" stroke="currentColor" stroke-width="2"/>
</svg>
